<?xml version="1.0" standalone="no"?><!DOCTYPE svg PUBLIC "-//W3C//DTD SVG 1.1//EN" "http://www.w3.org/Graphics/SVG/1.1/DTD/svg11.dtd"><svg class="icon" height="512" viewBox="0 0 1024 1024" version="1.1" xmlns="http://www.w3.org/2000/svg"><path d="M512 0a512 512 0 1 0 512 512A512 512 0 0 0 512 0z m0 819.2a247.296 247.296 0 0 1-247.04-247.04 340.224 340.224 0 0 1 43.776-153.6l38.144-64.256 9.472 73.984a168.96 168.96 0 0 0 25.6 76.8 27.136 27.136 0 0 0 25.6 7.936c4.352-1.792 5.376-8.96 5.376-14.592a281.6 281.6 0 0 0-3.328-30.208c-5.376-49.152-13.568-123.392 49.408-249.088l34.304-68.608 13.824 76.8c25.6 145.152 55.552 192.512 74.752 223.744L588.8 460.8a41.472 41.472 0 0 0 25.6 20.736 11.52 11.52 0 0 0 3.84 0c0-2.304 3.584-17.92 4.352-23.04l17.408-98.048 34.048 29.184a258.56 258.56 0 0 1 84.48 182.528A247.296 247.296 0 0 1 512 819.2z" fill="#FF4D4D" /><path d="M673.536 467.2a81.152 81.152 0 0 1-27.648 57.088 52.48 52.48 0 0 1-41.472 6.656A92.416 92.416 0 0 1 544.768 486.4l-7.168-9.984a502.272 502.272 0 0 1-64.512-160.768 312.576 312.576 0 0 0-12.288 146.944 323.072 323.072 0 0 1 2.56 34.56 62.464 62.464 0 0 1-36.864 61.696 76.8 76.8 0 0 1-80.896-18.944 104.704 104.704 0 0 1-19.968-30.208 228.352 228.352 0 0 0-9.472 62.464 195.84 195.84 0 0 0 391.68 0 190.464 190.464 0 0 0-34.048-105.216z" fill="#FF4D4D" /></svg>